<!DOCTYPE svg PUBLIC "-//W3C//DTD SVG 1.1//EN" "http://www.w3.org/Graphics/SVG/1.1/DTD/svg11.dtd">
<!-- Uploaded to: SVG Repo, www.svgrepo.com, Transformed by: SVG Repo Mixer Tools -->
<svg width="800px" height="800px" viewBox="-163.84 -163.84 1351.68 1351.68" class="icon" version="1.1" xmlns="http://www.w3.org/2000/svg" fill="#000000" stroke="#000000" transform="rotate(0)" stroke-width="3.072">
<g id="SVGRepo_bgCarrier" stroke-width="0"/>
<g id="SVGRepo_tracerCarrier" stroke-linecap="round" stroke-linejoin="round" stroke="#030303" stroke-width="40.96">
<path d="M512 512m-448 0a448 448 0 1 0 896 0 448 448 0 1 0-896 0Z" fill="#f5f901"/>
<path d="M512 234.666667l83.2 168.533333 185.6 27.733333-134.4 130.133334 32 185.6-166.4-87.466667-166.4 87.466667 32-185.6-134.4-130.133334 185.6-27.733333z" fill="#ffcb2e"/>
</g>
<g id="SVGRepo_iconCarrier">
<path d="M512 512m-448 0a448 448 0 1 0 896 0 448 448 0 1 0-896 0Z" fill="#f5f901"/>
<path d="M512 234.666667l83.2 168.533333 185.6 27.733333-134.4 130.133334 32 185.6-166.4-87.466667-166.4 87.466667 32-185.6-134.4-130.133334 185.6-27.733333z" fill="#ffcb2e"/>
</g>
</svg>